<?xml version="1.0" encoding="UTF-8"?>
<svg xmlns="http://www.w3.org/2000/svg" xmlns:xlink="http://www.w3.org/1999/xlink" version="1.1" id="Capa_1" x="0px" y="0px"  viewBox="0 0 512 512" style="enable-background:new 0 0 512 512;" xml:space="preserve" width="512" height="512">
<g>
	<path style="fill:none;stroke:#707070;stroke-width:15;stroke-linecap:round;stroke-linejoin:round;stroke-miterlimit:10;" d="&#10;&#9;&#9;M457.002,340.282v72.241c0,17.732-14.375,32.107-32.107,32.107H39.607c-17.732,0-32.107-14.375-32.107-32.107V187.772&#10;&#9;&#9;c0-17.732,14.375-32.107,32.107-32.107h385.288c17.732,0,32.107,14.375,32.107,32.107v120.402"/>
	<path style="fill:none;stroke:#707070;stroke-width:15;stroke-linecap:round;stroke-linejoin:round;stroke-miterlimit:10;" d="&#10;&#9;&#9;M38.972,123.557c5.088-6.14,12.458-10.406,21.005-11.401l382.701-44.567c17.613-2.051,33.555,10.564,35.606,28.178l25.998,223.242&#10;&#9;&#9;c2.051,17.613-10.564,33.555-28.178,35.606l-19.101,2.224"/>
	
		<line style="fill:none;stroke:#707070;stroke-width:15;stroke-linecap:round;stroke-linejoin:round;stroke-miterlimit:10;" x1="55.661" y1="348.308" x2="119.876" y2="348.308"/>
	
		<line style="fill:none;stroke:#707070;stroke-width:15;stroke-linecap:round;stroke-linejoin:round;stroke-miterlimit:10;" x1="55.661" y1="388.443" x2="216.197" y2="388.443"/>
	
		<line style="fill:none;stroke:#707070;stroke-width:15;stroke-linecap:round;stroke-linejoin:round;stroke-miterlimit:10;" x1="151.983" y1="348.308" x2="216.197" y2="348.308"/>
	
		<line style="fill:none;stroke:#707070;stroke-width:15;stroke-linecap:round;stroke-linejoin:round;stroke-miterlimit:10;" x1="248.305" y1="348.308" x2="312.519" y2="348.308"/>
	
		<line style="fill:none;stroke:#707070;stroke-width:15;stroke-linecap:round;stroke-linejoin:round;stroke-miterlimit:10;" x1="344.627" y1="348.308" x2="408.841" y2="348.308"/>
	<path style="fill:none;stroke:#707070;stroke-width:15;stroke-linecap:round;stroke-linejoin:round;stroke-miterlimit:10;" d="&#10;&#9;&#9;M119.876,308.174H71.715c-8.866,0-16.054-7.187-16.054-16.054v-32.107c0-8.866,7.187-16.054,16.054-16.054h48.161&#10;&#9;&#9;c8.866,0,16.054,7.187,16.054,16.054v32.107C135.929,300.987,128.742,308.174,119.876,308.174z"/>
	
		<line style="fill:none;stroke:#707070;stroke-width:15;stroke-linecap:round;stroke-linejoin:round;stroke-miterlimit:10;" x1="87.768" y1="276.067" x2="103.822" y2="276.067"/>
	<path style="fill:none;stroke:#707070;stroke-width:15;stroke-linecap:round;stroke-linejoin:round;stroke-miterlimit:10;" d="&#10;&#9;&#9;M384.253,284.094c5.414-10.882,8.535-23.121,8.535-36.121c0-13-3.121-25.24-8.535-36.121"/>
	<path style="fill:none;stroke:#707070;stroke-width:15;stroke-linecap:round;stroke-linejoin:round;stroke-miterlimit:10;" d="&#10;&#9;&#9;M355.467,269.599c3.257-6.525,5.214-13.823,5.214-21.626s-1.957-15.101-5.214-21.626"/>
	<path style="fill:none;stroke:#707070;stroke-width:15;stroke-linecap:round;stroke-linejoin:round;stroke-miterlimit:10;" d="&#10;&#9;&#9;M326.795,255.161c1.103-2.165,1.778-4.584,1.778-7.188c0-2.605-0.675-5.023-1.778-7.188"/>
</g>
</svg>